PathFileType	4	(X/Y/Z)	D:\TRACE\spot_10-12-23\spot_arm_motion_3_3-platform.trc
DataRate	CameraRate	NumFrames	NumMarkers	Units	OrigDataRate	OrigDataStartFrame	OrigNumFrames
100.00	100.00	      42	5	mm	100.00	1	      7000
Frame#	Time	Left_Front			Right_Front			Left_Aft			Right_Aft			Post			
		X1	Y1	Z1	X2	Y2	Z2	X3	Y3	Z3	X4	Y4	Z4	X5	Y5	Z5	

1	0.000	-819.94086	123.41782	-602.50677	752.82257	126.77007	-595.63751	-736.35571	-79.11338	517.34796	680.99542	-89.81297	602.54675	-37.73702	905.82910	-784.54388	
2	0.010	-819.96661	123.44637	-602.51715	752.88110	126.76675	-595.62225	-736.36841	-79.08691	517.38885	681.01086	-89.81743	602.58636	-37.66687	905.83057	-784.56708	
3	0.020	-819.92639	123.40826	-602.51208	752.89691	126.74873	-595.60480	-736.38971	-79.06513	517.40277	681.02698	-89.82137	602.56366	-37.63902	905.86725	-784.56165	
4	0.030	-819.89465	123.37173	-602.49719	752.91064	126.77264	-595.62024	-736.38495	-79.09048	517.36627	681.02917	-89.83128	602.59515	-37.59614	905.87030	-784.55792	
5	0.040	-819.89575	123.40813	-602.55273	752.85297	126.76851	-595.61035	-736.38293	-79.04370	517.37872	681.07471	-89.80983	602.57349	-37.61813	905.88531	-784.56482	
6	0.050	-819.96375	123.43613	-602.48431	752.83997	126.78368	-595.64154	-736.39392	-79.09388	517.37933	681.03583	-89.83115	602.53461	-37.39098	905.78394	-784.33868	
7	0.060	-819.93109	123.37248	-602.46405	752.91064	126.79547	-595.65265	-736.36255	-79.08076	517.36914	680.99915	-89.82990	602.55194	-37.42076	905.75848	-784.31439	
8	0.070	-819.93207	123.40076	-602.49005	752.87927	126.79539	-595.61816	-736.37604	-79.11053	517.32367	680.98230	-89.81075	602.56897	-37.41394	905.77283	-784.24969	
9	0.080	-819.89667	123.38520	-602.52100	752.87604	126.77104	-595.60901	-736.36346	-79.02859	517.37500	681.04108	-89.83499	602.53619	-37.43190	905.76154	-784.28857	
10	0.090	-819.88300	123.39893	-602.52252	752.87744	126.77107	-595.62152	-736.41852	-79.07044	517.32056	681.03540	-89.79894	602.54022	-37.40976	905.77020	-784.29279	
11	0.100	-819.91040	123.44041	-602.49414	752.85767	126.78470	-595.63910	-736.39844	-79.09539	517.33722	681.05029	-89.81573	602.56738	-37.42530	905.70923	-784.35577	
12	0.110	-819.92725	123.39537	-602.49780	752.87775	126.77998	-595.65674	-736.41113	-79.09138	517.38910	681.00378	-89.79697	602.56134	-37.42007	905.80157	-784.35010	
13	0.120	-819.91235	123.39478	-602.51886	752.80646	126.80500	-595.63153	-736.37970	-79.11631	517.38458	681.00458	-89.82294	602.58624	-37.40550	905.76642	-784.36584	
14	0.130	-819.91937	123.39147	-602.49109	752.82245	126.79107	-595.65918	-736.39270	-79.09473	517.36206	680.99286	-89.82929	602.56482	-37.39331	905.76672	-784.33936	
15	0.140	-819.88361	123.39963	-602.50916	752.87781	126.79909	-595.65027	-736.41425	-79.10822	517.36853	681.01251	-89.82909	602.51489	-37.38603	905.78564	-784.33990	
16	0.150	-819.90100	123.40328	-602.53564	752.82904	126.79391	-595.63922	-736.35895	-79.06335	517.37823	681.04224	-89.82446	602.56427	-37.39477	905.78931	-784.37909	
17	0.160	-819.90448	123.38896	-602.50647	752.86951	126.75208	-595.62805	-736.34570	-79.09142	517.39606	681.02502	-89.81620	602.56573	-37.41404	905.74683	-784.35785	
18	0.170	-819.94684	123.42194	-602.50220	752.84235	126.74531	-595.62720	-736.35028	-79.09947	517.37354	681.01868	-89.82551	602.56348	-37.41922	905.75055	-784.32489	
19	0.180	-819.92957	123.42249	-602.49933	752.83929	126.78021	-595.61346	-736.39685	-79.10200	517.39032	681.00903	-89.82699	602.56860	-37.40495	905.73657	-784.30835	
20	0.190	-819.92725	123.42963	-602.50806	752.85907	126.78187	-595.61761	-736.36755	-79.08762	517.40991	681.01025	-89.81337	602.55975	-37.43877	905.74811	-784.29767	
21	0.200	-819.87207	123.39249	-602.53735	752.83185	126.80259	-595.64978	-736.33685	-79.06265	517.35962	681.03973	-89.79696	602.52911	-37.35380	905.76227	-784.22894	
22	0.210	-819.91467	123.43137	-602.52460	752.85541	126.76499	-595.64673	-736.38348	-79.07296	517.39343	681.02203	-89.79110	602.58063	-37.42786	905.79022	-784.29321	
23	0.220	-819.90692	123.41193	-602.49652	752.84302	126.76289	-595.64209	-736.37695	-79.05164	517.38251	680.99182	-89.81975	602.53278	-37.40199	905.73218	-784.32104	
24	0.230	-819.91058	123.41953	-602.51361	752.81921	126.80637	-595.65503	-736.37555	-79.11569	517.39514	680.97772	-89.81120	602.57050	-37.40818	905.76666	-784.34906	
25	0.240	-819.91656	123.39695	-602.48602	752.85382	126.79786	-595.61334	-736.36969	-79.05449	517.36121	681.01770	-89.81196	602.55701	-37.39380	905.75568	-784.39160	
26	0.250	-819.91351	123.40909	-602.52893	752.85327	126.79525	-595.59485	-736.38281	-79.08077	517.41870	681.01526	-89.79916	602.54938	-37.41502	905.78094	-784.38043	
27	0.260	-819.86371	123.39451	-602.53577	752.82019	126.76105	-595.60309	-736.37262	-79.03952	517.35486	681.02960	-89.80871	602.55951	-37.37820	905.75067	-784.40363	
28	0.270	-819.93982	123.42734	-602.52698	752.82672	126.79726	-595.62164	-736.37006	-79.06232	517.35126	681.02924	-89.83506	602.55682	-37.38474	905.75739	-784.31946	
29	0.280	-819.93024	123.42555	-602.49323	752.85986	126.77727	-595.62494	-736.35858	-79.06796	517.36694	680.99890	-89.79432	602.55365	-37.47145	905.75995	-784.36957	
30	0.290	-819.92316	123.40651	-602.50018	752.84686	126.79739	-595.60522	-736.37976	-79.03054	517.31616	681.01715	-89.82691	602.52026	-37.44287	905.78119	-784.34521	
31	0.300	-819.92017	123.40486	-602.52161	752.85339	126.78132	-595.59680	-736.34045	-79.08162	517.32562	681.01025	-89.81924	602.50983	-37.35813	905.74902	-784.33167	
32	0.310	-819.90448	123.42757	-602.51691	752.84918	126.79768	-595.59515	-736.36444	-79.05897	517.34857	681.05957	-89.84069	602.54712	-37.42080	905.81714	-784.29749	
33	0.320	-819.97803	123.42919	-602.45789	752.84009	126.80331	-595.61450	-736.34833	-79.02347	517.30121	681.05713	-89.82898	602.54187	-37.38012	905.77588	-784.32294	
34	0.330	-819.95117	123.39833	-602.46582	752.84064	126.78202	-595.62836	-736.38013	-79.01289	517.32532	680.99084	-89.81252	602.54224	-37.39315	905.73999	-784.27014	
35	0.340	-819.96564	123.41988	-602.44952	752.85730	126.76144	-595.61829	-736.43964	-78.99297	517.29639	681.00262	-89.83762	602.52399	-37.42089	905.76239	-784.29608	
36	0.350	-819.96539	123.43223	-602.45892	752.82648	126.77993	-595.62878	-736.44678	-78.97519	517.27661	681.00470	-89.82444	602.53656	-37.41236	905.72711	-784.35217	
37	0.360	-819.96533	123.40992	-602.45105	752.87152	126.77048	-595.60565	-736.36255	-79.00847	517.32269	681.02258	-89.80851	602.53491	-37.41179	905.75897	-784.35193	
38	0.370	-819.98474	123.46597	-602.47565	752.85339	126.78416	-595.58173	-736.42877	-78.98013	517.28387	681.00354	-89.80241	602.55884	-37.36418	905.77368	-784.38721	
39	0.380	-819.98706	123.43278	-602.48889	752.88831	126.78363	-595.60498	-736.41260	-78.95459	517.30743	681.00610	-89.83226	602.54840	-37.38438	905.78003	-784.37024	
40	0.390	-819.98059	123.42651	-602.46698	752.85114	126.75791	-595.58630	-736.41937	-78.99534	517.29700	681.02551	-89.83577	602.55176	-37.37665	905.77612	-784.36011	
41	0.400	-819.95477	123.39065	-602.48016	752.86151	126.77758	-595.60864	-736.39307	-79.04520	517.36481	681.00598	-89.81671	602.54321	-37.39857	905.73468	-784.31055	
42	0.410	-819.97003	123.42941	-602.48035	752.86334	126.77072	-595.61597	-736.38470	-79.05551	517.38202	681.04413	-89.81679	602.56055	-37.40662	905.78473	-784.31671	
